<svg width="140" height="40" viewBox="0 0 140 40" fill="none" xmlns="http://www.w3.org/2000/svg">
<g clip-path="url(#clip0_3314_2)">
<path d="M6.112 31V8.6H15.328C16.736 8.6 17.9733 8.888 19.04 9.464C20.128 10.0187 20.9707 10.808 21.568 11.832C22.1867 12.856 22.496 14.072 22.496 15.48V15.928C22.496 17.3147 22.176 18.5307 21.536 19.576C20.9173 20.6 20.064 21.4 18.976 21.976C17.9093 22.5307 16.6933 22.808 15.328 22.808H10.336V31H6.112ZM10.336 18.968H14.912C15.9147 18.968 16.7253 18.6907 17.344 18.136C17.9627 17.5813 18.272 16.824 18.272 15.864V15.544C18.272 14.584 17.9627 13.8267 17.344 13.272C16.7253 12.7173 15.9147 12.44 14.912 12.44H10.336V18.968ZM25.4557 31V8.6H35.1838C36.5918 8.6 37.8184 8.84533 38.8638 9.336C39.9091 9.82667 40.7198 10.52 41.2958 11.416C41.8718 12.312 42.1597 13.368 42.1597 14.584V14.968C42.1597 16.312 41.8398 17.4 41.1998 18.232C40.5598 19.064 39.7704 19.672 38.8318 20.056V20.632C39.6851 20.6747 40.3464 20.9733 40.8158 21.528C41.2851 22.0613 41.5198 22.776 41.5198 23.672V31H37.2958V24.28C37.2958 23.768 37.1571 23.352 36.8798 23.032C36.6238 22.712 36.1864 22.552 35.5678 22.552H29.6798V31H25.4557ZM29.6798 18.712H34.7358C35.7384 18.712 36.5171 18.4453 37.0718 17.912C37.6478 17.3573 37.9358 16.632 37.9358 15.736V15.416C37.9358 14.52 37.6584 13.8053 37.1038 13.272C36.5491 12.7173 35.7598 12.44 34.7358 12.44H29.6798V18.712ZM45.6745 31V8.6H49.8985V31H45.6745ZM61.888 31.448C60.16 31.448 58.6347 31.1387 57.312 30.52C55.9893 29.9013 54.9547 29.016 54.208 27.864C53.4613 26.712 53.088 25.3253 53.088 23.704V22.808H57.248V23.704C57.248 25.048 57.664 26.0613 58.496 26.744C59.328 27.4053 60.4587 27.736 61.888 27.736C63.3387 27.736 64.416 27.448 65.12 26.872C65.8453 26.296 66.208 25.56 66.208 24.664C66.208 24.0453 66.0267 23.544 65.664 23.16C65.3227 22.776 64.8107 22.4667 64.128 22.232C63.4667 21.976 62.656 21.7413 61.696 21.528L60.96 21.368C59.424 21.0267 58.1013 20.6 56.992 20.088C55.904 19.5547 55.0613 18.8613 54.464 18.008C53.888 17.1547 53.6 16.0453 53.6 14.68C53.6 13.3147 53.92 12.152 54.56 11.192C55.2213 10.2107 56.1387 9.464 57.312 8.952C58.5067 8.41867 59.904 8.152 61.504 8.152C63.104 8.152 64.5227 8.42933 65.76 8.984C67.0187 9.51733 68 10.328 68.704 11.416C69.4293 12.4827 69.792 13.8267 69.792 15.448V16.408H65.632V15.448C65.632 14.5947 65.4613 13.912 65.12 13.4C64.8 12.8667 64.3307 12.4827 63.712 12.248C63.0933 11.992 62.3573 11.864 61.504 11.864C60.224 11.864 59.2747 12.1093 58.656 12.6C58.0587 13.0693 57.76 13.72 57.76 14.552C57.76 15.1067 57.8987 15.576 58.176 15.96C58.4747 16.344 58.912 16.664 59.488 16.92C60.064 17.176 60.8 17.4 61.696 17.592L62.432 17.752C64.032 18.0933 65.4187 18.5307 66.592 19.064C67.7867 19.5973 68.7147 20.3013 69.376 21.176C70.0373 22.0507 70.368 23.1707 70.368 24.536C70.368 25.9013 70.016 27.1067 69.312 28.152C68.6293 29.176 67.648 29.9867 66.368 30.584C65.1093 31.16 63.616 31.448 61.888 31.448Z" fill="white"/>
<path d="M85 10.5C83.1211 10.5 81.2843 11.0572 79.7221 12.101C78.1598 13.1449 76.9422 14.6286 76.2231 16.3645C75.5041 18.1004 75.316 20.0105 75.6825 21.8534C76.0491 23.6962 76.9539 25.3889 78.2825 26.7175C79.6111 28.0461 81.3038 28.9509 83.1466 29.3175C84.9895 29.684 86.8996 29.4959 88.6355 28.7769C90.3714 28.0578 91.8551 26.8402 92.899 25.2779C93.9428 23.7157 94.5 21.8789 94.5 20" stroke="#EE9EAA" stroke-width="5"/>
<path d="M100.112 31V8.6H104.336V27.16H114.576V31H100.112ZM115.92 31L121.808 8.6H129.168L135.056 31H130.704L129.488 26.072H121.488L120.272 31H115.92ZM122.48 22.168H128.496L125.776 11.256H125.2L122.48 22.168Z" fill="white"/>
</g>
<defs>
<clipPath id="clip0_3314_2">
<rect width="132" height="40" fill="white" transform="translate(4)"/>
</clipPath>
</defs>
</svg>
