<svg width="147" height="38" viewBox="0 0 147 38" fill="none" xmlns="http://www.w3.org/2000/svg">
<g clip-path="url(#clip0_3314_2)">
<path d="M17.5938 21.9844H12.9375V18.1875H17.5938C18.25 18.1875 18.7812 18.0417 19.1875 17.75C19.5938 17.4583 19.8906 17.0573 20.0781 16.5469C20.2656 16.026 20.3594 15.4427 20.3594 14.7969C20.3594 14.1406 20.2656 13.526 20.0781 12.9531C19.8906 12.3802 19.5938 11.9219 19.1875 11.5781C18.7812 11.224 18.25 11.0469 17.5938 11.0469H14.4219V30H9.84375V7.25H17.5938C19.125 7.25 20.4375 7.57292 21.5312 8.21875C22.6354 8.86458 23.4844 9.75521 24.0781 10.8906C24.6719 12.0156 24.9688 13.3073 24.9688 14.7656C24.9688 16.2344 24.6719 17.5104 24.0781 18.5938C23.4844 19.6667 22.6354 20.5 21.5312 21.0938C20.4375 21.6875 19.125 21.9844 17.5938 21.9844ZM28.0469 7.25H35.3438C36.8646 7.25 38.1615 7.51042 39.2344 8.03125C40.3073 8.55208 41.1302 9.32292 41.7031 10.3438C42.276 11.3646 42.5625 12.625 42.5625 14.125C42.5625 15.3542 42.3958 16.4062 42.0625 17.2812C41.7292 18.1458 41.2552 18.8698 40.6406 19.4531C40.026 20.026 39.2917 20.4844 38.4375 20.8281L37.0469 21.6562H31.125L31.1094 17.8594H35.2188C35.8438 17.8594 36.3594 17.724 36.7656 17.4531C37.1823 17.1719 37.4896 16.7812 37.6875 16.2812C37.8958 15.7708 38 15.1771 38 14.5C38 13.7812 37.9062 13.1667 37.7188 12.6562C37.5417 12.1354 37.2552 11.7396 36.8594 11.4688C36.474 11.1875 35.9688 11.0469 35.3438 11.0469H32.625V30H28.0469V7.25ZM38.375 30L34.2031 19.8594L39 19.8438L43.2656 29.7812V30H38.375ZM50.5 7.25V30H45.9531V7.25H50.5ZM64.0312 24.0156C64.0312 23.6094 63.9948 23.2396 63.9219 22.9062C63.849 22.5729 63.6927 22.2656 63.4531 21.9844C63.224 21.7031 62.8854 21.4219 62.4375 21.1406C62 20.8594 61.4271 20.5677 60.7188 20.2656C59.875 19.9115 59.0573 19.5365 58.2656 19.1406C57.474 18.7344 56.7604 18.2656 56.125 17.7344C55.4896 17.2031 54.9844 16.5781 54.6094 15.8594C54.2448 15.1302 54.0625 14.276 54.0625 13.2969C54.0625 12.3385 54.2344 11.4688 54.5781 10.6875C54.9323 9.90625 55.4323 9.23958 56.0781 8.6875C56.724 8.125 57.4792 7.69271 58.3438 7.39062C59.2188 7.08854 60.1927 6.9375 61.2656 6.9375C62.724 6.9375 63.9844 7.23958 65.0469 7.84375C66.1198 8.44792 66.9479 9.27604 67.5312 10.3281C68.125 11.3802 68.4219 12.5885 68.4219 13.9531H63.8594C63.8594 13.3073 63.7656 12.7396 63.5781 12.25C63.401 11.75 63.1146 11.3594 62.7188 11.0781C62.3229 10.7969 61.8125 10.6562 61.1875 10.6562C60.6042 10.6562 60.1198 10.776 59.7344 11.0156C59.3594 11.2448 59.0781 11.5625 58.8906 11.9688C58.7135 12.3646 58.625 12.8125 58.625 13.3125C58.625 13.6875 58.7135 14.026 58.8906 14.3281C59.0781 14.6198 59.3333 14.8854 59.6562 15.125C59.9792 15.3542 60.3594 15.5781 60.7969 15.7969C61.2448 16.0156 61.7344 16.2292 62.2656 16.4375C63.2969 16.8438 64.2083 17.2917 65 17.7812C65.7917 18.2604 66.4531 18.8021 66.9844 19.4062C67.5156 20 67.9167 20.6719 68.1875 21.4219C68.4583 22.1719 68.5938 23.026 68.5938 23.9844C68.5938 24.9323 68.4271 25.7969 68.0938 26.5781C67.7708 27.349 67.2969 28.0156 66.6719 28.5781C66.0469 29.1302 65.2917 29.5573 64.4062 29.8594C63.5312 30.1615 62.5521 30.3125 61.4688 30.3125C60.4167 30.3125 59.4219 30.1667 58.4844 29.875C57.5469 29.5729 56.7188 29.1198 56 28.5156C55.2917 27.901 54.7344 27.125 54.3281 26.1875C53.9219 25.2396 53.7188 24.1198 53.7188 22.8281H58.2969C58.2969 23.5156 58.3646 24.1042 58.5 24.5938C58.6354 25.0729 58.8438 25.4583 59.125 25.75C59.4062 26.0312 59.75 26.2448 60.1562 26.3906C60.5729 26.526 61.0469 26.5938 61.5781 26.5938C62.1823 26.5938 62.6615 26.4792 63.0156 26.25C63.3802 26.0208 63.6406 25.7135 63.7969 25.3281C63.9531 24.9427 64.0312 24.5052 64.0312 24.0156Z" fill="#2B325A"/>
<path d="M96 19C96 21.2403 95.1644 23.4001 93.6567 25.0571C92.1489 26.7141 90.0774 27.7492 87.847 27.9601C85.6166 28.1709 83.3878 27.5423 81.5962 26.1972C79.8047 24.852 78.5792 22.8871 78.1594 20.6864C77.7396 18.4858 78.1557 16.2077 79.3262 14.2975C80.4968 12.3873 82.3377 10.9824 84.4891 10.3574C86.6404 9.73233 88.9476 9.93215 90.9595 10.9178C92.9713 11.9034 94.5433 13.6039 95.368 15.6869" stroke="#EE9EAA" stroke-width="10"/>
<path d="M118.469 26.2188V30H109.016V26.2188H118.469ZM110.422 7.25V30H105.844V7.25H110.422ZM129.703 11.3125L124.812 30H119.984L127.094 7.25H130.109L129.703 11.3125ZM133.562 30L128.641 11.3125L128.188 7.25H131.25L138.422 30H133.562ZM133.734 21.5156V25.3125H123.469V21.5156H133.734Z" fill="#2B325A"/>
</g>
<defs>
<clipPath id="clip0_3314_2">
<rect width="131" height="38" fill="white" transform="translate(8)"/>
</clipPath>
</defs>
</svg>
